<svg width="136" height="26" viewBox="0 0 136 26" fill="none" xmlns="http://www.w3.org/2000/svg">
<path d="M11.6973 17.5645H3.68555V26H0.226562V6.09375H12.873V8.88281H3.68555V14.8027H11.6973V17.5645ZM22.9355 18.3301H19.0801V26H15.6211V6.09375H22.6211C24.918 6.09375 26.6908 6.60872 27.9395 7.63867C29.1882 8.66862 29.8125 10.1589 29.8125 12.1094C29.8125 13.4401 29.4889 14.5566 28.8418 15.459C28.2038 16.3522 27.3105 17.0404 26.1621 17.5234L30.6328 25.8223V26H26.9277L22.9355 18.3301ZM19.0801 15.5547H22.6348C23.8014 15.5547 24.7129 15.263 25.3691 14.6797C26.0254 14.0872 26.3535 13.2806 26.3535 12.2598C26.3535 11.1934 26.0482 10.3685 25.4375 9.78516C24.8359 9.20182 23.9336 8.90104 22.7305 8.88281H19.0801V15.5547ZM44.7285 17.1133H36.5527V23.2383H46.1094V26H33.0938V6.09375H46.0137V8.88281H36.5527V14.3789H44.7285V17.1133ZM60.5605 17.1133H52.3848V23.2383H61.9414V26H48.9258V6.09375H61.8457V8.88281H52.3848V14.3789H60.5605V17.1133ZM76.3926 17.1133H68.2168V23.2383H77.7734V26H64.7578V6.09375H77.6777V8.88281H68.2168V14.3789H76.3926V17.1133ZM83.8438 23.2383H94.4805V26H79.6602V23.7578L89.9551 8.88281H79.7285V6.09375H94.1523V8.28125L83.8438 23.2383ZM101.945 6.09375L107.688 21.3516L113.416 6.09375H117.887V26H114.441V19.4375L114.783 10.6602L108.904 26H106.43L100.564 10.6738L100.906 19.4375V26H97.4609V6.09375H101.945ZM133.623 17.1133H125.447V23.2383H135.004V26H121.988V6.09375H134.908V8.88281H125.447V14.3789H133.623V17.1133Z" fill="white"/>
</svg>
