<svg width="10" height="16" viewBox="0 0 10 16" fill="none" xmlns="http://www.w3.org/2000/svg">
<path d="M4.99947 11.4065C6.64038 11.4065 7.95401 10.0694 7.95401 8.42751V2.97897C7.95401 1.33712 6.64038 0 4.99947 0C3.35856 0 2.04492 1.33712 2.04492 2.97897V8.42297C2.04492 10.0648 3.35856 11.4065 4.99947 11.4065Z" fill="#5E5F60"/>
<path d="M9.36364 6.26721V8.44572C9.36364 10.8607 7.41364 12.8209 5 12.8209C2.58636 12.8209 0.636364 10.8562 0.636364 8.44572V6.26721H0V8.44572C0 11.1018 2.06818 13.2848 4.68182 13.4486V15.3633H2.68182V16H7.31818V15.3633H5.31818V13.4486C7.93182 13.2848 10 11.1018 10 8.44572V6.26721H9.36364Z" fill="#5E5F60"/>
</svg>
